{"title":"Pacific Rim 2013 READNFO NEW SOURCE R6 HDCAM XViD SAF","uid":8808588,"size":1538428928,"categoryP":"video","categoryS":"movies","magnet":"?xt=urn:btih:447cbef98d4e0505f6bb809e1d1c92f70cc73f50&amp;dn=Pacific+Rim+2013+READNFO+NEW+SOURCE+R6+HDCAM+XViD+SAF&amp;tr=udp%3A%2F%2Ftracker.openbittorrent.com%3A80&amp;tr=udp%3A%2F%2Fopen.demonii.com%3A1337&amp;tr=udp%3A%2F%2Ftracker.coppersurfer.tk%3A6969&amp;tr=udp%3A%2F%2Fexodus.desync.com%3A6969","seeders":0,"leechers":1,"uploader":"TeX","files":3,"time":1376354694,"description":"\n\n\nFormat : AVI\nFormat/Info : Audio Video Interleave\nFile size : 1.43 GiB\nDuration : 2h 1mn\nOverall bit rate : 1 682 Kbps\nWriting application : VirtualDubMod 1.5.10.2 (build 2540/release)\nWriting library : VirtualDubMod build 2540/release\n\nVideo\nID : 0\nFormat : MPEG-4 Visual\nFormat profile : Advanced Simple@L5\nFormat settings, BVOP : 2\nFormat settings, QPel : No\nFormat settings, GMC : No warppoints\nFormat settings, Matrix : Default (H.263)\nMuxing mode : Packed bitstream\nCodec ID : XVID\nCodec ID/Hint : XviD\nDuration : 2h 1mn\nBit rate : 1 478 Kbps\nWidth : 720 pixels\nHeight : 318 pixels\nDisplay aspect ratio : 2.25:1\nFrame rate : 29.970 fps\nColor space : YUV\nChroma subsampling : 4:2:0\nBit depth : 8 bits\nScan type : Progressive\nCompression mode : Lossy\nBits/(Pixel*Frame) : 0.215\nStream size : 1.25 GiB (88%)\nWriting library : XviD 64\n\nAudio\nID : 1\nFormat : AC-3\nFormat/Info : Audio Coding 3\nMode extension : CM (complete main)\nFormat settings, Endianness : Big\nCodec ID : 2000\nDuration : 2h 1mn\nBit rate mode : Constant\nBit rate : 192 Kbps\nChannel(s) : 2 channels\nChannel positions : Front: L R\nSampling rate : 48.0 KHz\nBit depth : 16 bits\nCompression mode : Lossy\nStream size : 167 MiB (11%)\nAlignment : Split accross interleaves\nInterleave, duration : 33 ms (1.00 video frame)\nInterleave, preload duration : 500 ms\n\n\n &lt;a href=&quot;\nhttp://www.imdb.com/title/tt1663662/&quot; rel=&quot;nofollow&quot; target=&quot;_NEW&quot;&gt;\nhttp://www.imdb.com/title/tt1663662/&lt;/a&gt;\n\n\n\n\nAs a war between humankind and monstrous sea creatures wages on, a former pilot and a trainee are paired up to drive a seemingly obsolete special weapon in a desperate effort to save the world from the apocalypse.\n\n\n\n\n\n\n\n\n\nSource Used SmY VOBS :bow: - Thanks\n\n\n\n\n\nGreets now going out to !\n\n\nJUSTiCE,FooKAS,KiSSMYACE,MiLLENiUM and the rest can just KMA :lol:\n\n\n\nREADNFO those claiming this is same source ..............before you open mouth get facts right ....Check ravers release a few lines of hardcoded subs some pretty high up screen.Compare that to this no blur no crop but hey presto no italian subs .Theres other reason but like i give a crap ......GET FACTS correct\n\nBefore you also question vobs i dont see them,just because you dont see them dont mean not real..SmY assures me the vobs will be uploaded in time\n\nWould have been a repack if not for mr smy thank you ;-)\n\n\nEnjoy\n\n\nCropped bottom line of subs away as vid was already embedded seen as it was cammed in china :lol:\n\n\n\n","torrent":{"xt":"urn:btih:447cbef98d4e0505f6bb809e1d1c92f70cc73f50","amp;dn":"Pacific+Rim+2013+READNFO+NEW+SOURCE+R6+HDCAM+XViD+SAF","amp;tr":["udp%3A%2F%2Ftracker.openbittorrent.com%3A80","udp%3A%2F%2Fopen.demonii.com%3A1337","udp%3A%2F%2Ftracker.coppersurfer.tk%3A6969","udp%3A%2F%2Fexodus.desync.com%3A6969"],"infoHash":"447cbef98d4e0505f6bb809e1d1c92f70cc73f50","infoHashBuffer":{"type":"Buffer","data":[68,124,190,249,141,78,5,5,246,187,128,158,29,28,146,247,12,199,63,80]},"announce":[],"urlList":[]}}